<?xml version="1.0" encoding="UTF-8" standalone="no"?>
<svg
   xmlns:dc="http://purl.org/dc/elements/1.1/"
   xmlns:cc="http://creativecommons.org/ns#"
   xmlns:rdf="http://www.w3.org/1999/02/22-rdf-syntax-ns#"
   xmlns:svg="http://www.w3.org/2000/svg"
   xmlns="http://www.w3.org/2000/svg"
   viewBox="0 0 2560 1440"
   height="1440"
   width="2560"
   xml:space="preserve"
   id="svg2"
   version="1.1"><metadata
     id="metadata8"><rdf:RDF><cc:Work
         rdf:about=""><dc:format>image/svg+xml</dc:format><dc:type
           rdf:resource="http://purl.org/dc/dcmitype/StillImage" /></cc:Work></rdf:RDF></metadata><defs
     id="defs6"><clipPath
       id="clipPath18"
       clipPathUnits="userSpaceOnUse"><path
         id="path16"
         d="M 0,1080 H 1920 V 0 H 0 Z" /></clipPath></defs><g
     transform="matrix(1.3333333,0,0,-1.3333333,0,1440)"
     id="g10"><g
       id="g12"><g
         clip-path="url(#clipPath18)"
         id="g14"><g
           transform="translate(706.5,648.5)"
           id="g20"><path
             id="path22"
             style="fill:#28616b;fill-opacity:1;fill-rule:nonzero;stroke:none"
             d="m 0,0 39,-181 c 0,0 0,-10 26,-8 h 254 c 0,0 22,-9 0,-20 H 60 c 0,0 -25,-15 3,-26 h 266 c 0,0 35,14 25,53 l -8,8 50,234 h 46 c 0,0 18,6 0,24 H 375 L 359,15 15,14 C 15,14 -2,9 0,0" /></g><g
           transform="translate(1029.5,358.5)"
           id="g24"><path
             id="path26"
             style="fill:#28616b;fill-opacity:1;fill-rule:nonzero;stroke:none"
             d="m 0,0 c 0,-22.644 -20.147,-41 -45,-41 -24.853,0 -45,18.356 -45,41 0,22.644 20.147,41 45,41 C -20.147,41 0,22.644 0,0" /></g><g
           transform="translate(998.5,356)"
           id="g28"><path
             id="path30"
             style="fill:#ffffff;fill-opacity:1;fill-rule:nonzero;stroke:none"
             d="m 0,0 c 0,-9.665 -6.492,-17.5 -14.5,-17.5 -8.008,0 -14.5,7.835 -14.5,17.5 0,9.665 6.492,17.5 14.5,17.5 C -6.492,17.5 0,9.665 0,0" /></g><g
           transform="translate(859.5,362.5)"
           id="g32"><path
             id="path34"
             style="fill:#28616b;fill-opacity:1;fill-rule:nonzero;stroke:none"
             d="m 0,0 c 0,-22.644 -20.147,-41 -45,-41 -24.853,0 -45,18.356 -45,41 0,22.644 20.147,41 45,41 C -20.147,41 0,22.644 0,0" /></g><g
           transform="translate(828.5,360)"
           id="g36"><path
             id="path38"
             style="fill:#ffffff;fill-opacity:1;fill-rule:nonzero;stroke:none"
             d="m 0,0 c 0,-9.665 -6.492,-17.5 -14.5,-17.5 -8.008,0 -14.5,7.835 -14.5,17.5 0,9.665 6.492,17.5 14.5,17.5 C -6.492,17.5 0,9.665 0,0" /></g><g
           transform="translate(738.5,636.5)"
           id="g40"><path
             id="path42"
             style="fill:#ffffff;fill-opacity:1;fill-rule:nonzero;stroke:none"
             d="M 0,0 14,-64 H 65 L 57,0 Z" /></g><g
           transform="translate(823.5,636.5)"
           id="g44"><path
             id="path46"
             style="fill:#ffffff;fill-opacity:1;fill-rule:nonzero;stroke:none"
             d="M 0,0 7,-64 H 63 V 0 Z" /></g><g
           transform="translate(913.5,636.5)"
           id="g48"><path
             id="path50"
             style="fill:#ffffff;fill-opacity:1;fill-rule:nonzero;stroke:none"
             d="M 0,0 V -64 H 56 L 61,0 Z" /></g><g
           transform="translate(1002.5,636.5)"
           id="g52"><path
             id="path54"
             style="fill:#ffffff;fill-opacity:1;fill-rule:nonzero;stroke:none"
             d="M 0,0 -8,-64 H 45 L 57,0 Z" /></g><g
           transform="translate(991.5,547.5)"
           id="g56"><path
             id="path58"
             style="fill:#ffffff;fill-opacity:1;fill-rule:nonzero;stroke:none"
             d="M 0,0 -7,-64 H 36 L 51,0 Z" /></g><g
           transform="translate(913.5,547.5)"
           id="g60"><path
             id="path62"
             style="fill:#ffffff;fill-opacity:1;fill-rule:nonzero;stroke:none"
             d="M 0,0 V -64 H 42 L 50,0 Z" /></g><g
           transform="translate(835.5,547.5)"
           id="g64"><path
             id="path66"
             style="fill:#ffffff;fill-opacity:1;fill-rule:nonzero;stroke:none"
             d="M 0,0 7,-64 H 51 V 0 Z" /></g><g
           transform="translate(757.5,547.5)"
           id="g68"><path
             id="path70"
             style="fill:#ffffff;fill-opacity:1;fill-rule:nonzero;stroke:none"
             d="m 0,0 14,-64 43,2 -8,62 z" /></g></g></g></g></svg>