<?xml version="1.0" encoding="UTF-8" standalone="no"?>
<svg
   xmlns:dc="http://purl.org/dc/elements/1.1/"
   xmlns:cc="http://creativecommons.org/ns#"
   xmlns:rdf="http://www.w3.org/1999/02/22-rdf-syntax-ns#"
   xmlns:svg="http://www.w3.org/2000/svg"
   xmlns="http://www.w3.org/2000/svg"
   xmlns:sodipodi="http://sodipodi.sourceforge.net/DTD/sodipodi-0.dtd"
   xmlns:inkscape="http://www.inkscape.org/namespaces/inkscape"
   version="1.1"
   id="svg2"
   xml:space="preserve"
   width="1066.6667"
   height="1066.6667"
   viewBox="0 0 1066.6667 1066.6667"
   sodipodi:docname="control-5127467.ai"><metadata
     id="metadata8"><rdf:RDF><cc:Work
         rdf:about=""><dc:format>image/svg+xml</dc:format><dc:type
           rdf:resource="http://purl.org/dc/dcmitype/StillImage" /></cc:Work></rdf:RDF></metadata><defs
     id="defs6"><clipPath
       clipPathUnits="userSpaceOnUse"
       id="clipPath18"><path
         d="M 0,800 H 800 V 0 H 0 Z"
         id="path16" /></clipPath></defs><sodipodi:namedview
     pagecolor="#ffffff"
     bordercolor="#666666"
     borderopacity="1"
     objecttolerance="10"
     gridtolerance="10"
     guidetolerance="10"
     inkscape:pageopacity="0"
     inkscape:pageshadow="2"
     inkscape:window-width="640"
     inkscape:window-height="480"
     id="namedview4" /><g
     id="g10"
     inkscape:groupmode="layer"
     inkscape:label="control-5127467"
     transform="matrix(1.3333333,0,0,-1.3333333,0,1066.6667)"><g
       id="g12"><g
         id="g14"
         clip-path="url(#clipPath18)"><g
           id="g20"
           transform="translate(569.5811,664.6733)"><path
             d="m 0,0 c -9.088,-27.476 -25.476,-61.12 -56.436,-72.384 -27.215,-9.902 -42.102,6.075 -67.476,-6.134 -31.353,-15.086 -52.827,-60.749 -41.712,-99.375 4.51,-15.674 13.381,-26.692 19.629,-33.124"
             style="fill:none;stroke:#0e0e0e;stroke-width:6;stroke-linecap:round;stroke-linejoin:round;stroke-miterlimit:10;stroke-dasharray:none;stroke-opacity:1"
             id="path22" /></g><g
           id="g24"
           transform="translate(567.127,658.5391)"><path
             d="m 0,0 c -8.924,-26.912 -26.824,-58.063 -57.227,-69.095 -26.725,-9.699 -41.344,5.949 -66.261,-6.009 -30.789,-14.776 -51.877,-59.501 -40.962,-97.334 4.429,-15.353 13.139,-26.145 19.276,-32.445"
             style="fill:none;stroke:#1b1b1b;stroke-width:6;stroke-linecap:round;stroke-linejoin:round;stroke-miterlimit:10;stroke-dasharray:none;stroke-opacity:1"
             id="path26" /></g><g
           id="g28"
           transform="translate(605.1592,473.5)"><path
             d="m 0,0 v 0.068 l -5.729,0.945 h -27.511 -5.811 -286.578 -6.375 -26.946 c -1.091,0 -2.178,-0.127 -3.24,-0.376 l -4.298,-1.011 c -1.347,-0.294 -2.69,-0.604 -4.019,-0.944 -48.473,-12.473 -84.345,-56.341 -84.65,-108.639 -0.358,-61.247 48.924,-112.073 110.155,-113.511 27.597,-0.648 53.021,8.623 72.961,24.505 h 179.402 c 19.94,-15.881 45.362,-25.152 72.957,-24.505 59.723,1.4 108.434,49.864 110.116,109.579 C 92.015,-57.78 52.629,-10.582 0,0"
             style="fill:#ababac;fill-opacity:1;fill-rule:nonzero;stroke:none"
             id="path30" /></g><g
           id="g32"
           transform="translate(605.1592,473.5)"><path
             d="m 0,0 v 0.068 l -5.729,0.945 h -27.511 -5.811 -286.578 -6.375 -26.946 c -1.091,0 -2.178,-0.127 -3.24,-0.376 l -4.298,-1.011 c -1.347,-0.294 -2.69,-0.604 -4.019,-0.944 -48.473,-12.473 -84.345,-56.341 -84.65,-108.639 -0.358,-61.247 48.924,-112.073 110.155,-113.511 27.597,-0.648 53.021,8.623 72.961,24.505 h 179.402 c 19.94,-15.881 45.362,-25.152 72.957,-24.505 59.723,1.4 108.434,49.864 110.116,109.579 C 92.015,-57.78 52.629,-10.582 0,0 Z"
             style="fill:none;stroke:#ababac;stroke-width:4;stroke-linecap:round;stroke-linejoin:round;stroke-miterlimit:10;stroke-dasharray:none;stroke-opacity:1"
             id="path34" /></g><g
           id="g36"
           transform="translate(612.5205,478.4072)"><path
             d="m 0,0 v 0.068 l -5.729,0.945 h -27.511 -5.811 -286.578 -6.375 -26.946 c -1.091,0 -2.178,-0.126 -3.24,-0.376 l -4.298,-1.011 c -1.348,-0.294 -2.69,-0.604 -4.019,-0.944 -48.473,-12.473 -84.345,-56.341 -84.651,-108.639 -0.357,-61.246 48.925,-112.073 110.156,-113.511 27.597,-0.648 53.02,8.623 72.961,24.505 H -92.64 c 19.941,-15.881 45.363,-25.152 72.957,-24.505 59.724,1.401 108.434,49.864 110.117,109.579 C 92.014,-57.78 52.629,-10.582 0,0"
             style="fill:#c2c2c2;fill-opacity:1;fill-rule:nonzero;stroke:none"
             id="path38" /></g><g
           id="g40"
           transform="translate(612.5205,478.4072)"><path
             d="m 0,0 v 0.068 l -5.729,0.945 h -27.511 -5.811 -286.578 -6.375 -26.946 c -1.091,0 -2.178,-0.126 -3.24,-0.376 l -4.298,-1.011 c -1.348,-0.294 -2.69,-0.604 -4.019,-0.944 -48.473,-12.473 -84.345,-56.341 -84.651,-108.639 -0.357,-61.246 48.925,-112.073 110.156,-113.511 27.597,-0.648 53.02,8.623 72.961,24.505 H -92.64 c 19.941,-15.881 45.363,-25.152 72.957,-24.505 59.724,1.401 108.434,49.864 110.117,109.579 C 92.014,-57.78 52.629,-10.582 0,0 Z"
             style="fill:none;stroke:#ababac;stroke-width:4;stroke-linecap:round;stroke-linejoin:round;stroke-miterlimit:10;stroke-dasharray:none;stroke-opacity:1"
             id="path42" /></g><g
           id="g44"
           transform="translate(689.4277,367.124)"><path
             d="m 0,0 c 0,-54.459 -44.148,-98.607 -98.607,-98.607 -23.195,0 -44.524,8.017 -61.372,21.436 -22.691,18.049 -37.236,45.917 -37.236,77.171 0,49.518 36.495,90.504 84.052,97.536 h 29.111 C -82.455,97.3 -80.88,97.032 -79.314,96.71 -34.095,87.75 0,47.857 0,0"
             style="fill:#b3b3b3;fill-opacity:1;fill-rule:nonzero;stroke:none"
             id="path46" /></g><g
           id="g48"
           transform="translate(689.4277,367.124)"><path
             d="m 0,0 c 0,-54.459 -44.148,-98.607 -98.607,-98.607 -23.195,0 -44.524,8.017 -61.372,21.436 -22.691,18.049 -37.236,45.917 -37.236,77.171 0,49.518 36.495,90.504 84.052,97.536 h 29.111 C -82.455,97.3 -80.88,97.032 -79.314,96.71 -34.095,87.75 0,47.857 0,0 Z"
             style="fill:none;stroke:#ababac;stroke-width:6;stroke-linecap:round;stroke-linejoin:round;stroke-miterlimit:10;stroke-dasharray:none;stroke-opacity:1"
             id="path50" /></g><g
           id="g52"
           transform="translate(331.4961,367.7393)"><path
             d="m 0,0 c 0,-33.794 -27.395,-61.189 -61.188,-61.189 -14.394,0 -27.629,4.975 -38.084,13.302 -14.08,11.2 -23.105,28.492 -23.105,47.887 0,30.728 22.646,56.161 52.156,60.523 h 18.064 c 0.991,-0.146 1.969,-0.312 2.94,-0.511 C -21.157,54.451 0,29.696 0,0"
             style="fill:#b3b3b3;fill-opacity:1;fill-rule:nonzero;stroke:none"
             id="path54" /></g><g
           id="g56"
           transform="translate(331.4961,367.7393)"><path
             d="m 0,0 c 0,-33.794 -27.395,-61.189 -61.188,-61.189 -14.394,0 -27.629,4.975 -38.084,13.302 -14.08,11.2 -23.105,28.492 -23.105,47.887 0,30.728 22.646,56.161 52.156,60.523 h 18.064 c 0.991,-0.146 1.969,-0.312 2.94,-0.511 C -21.157,54.451 0,29.696 0,0 Z"
             style="fill:none;stroke:#ababac;stroke-width:6;stroke-linecap:round;stroke-linejoin:round;stroke-miterlimit:10;stroke-dasharray:none;stroke-opacity:1"
             id="path58" /></g><g
           id="g60"
           transform="translate(605.1592,408.2627)"><path
             d="m 0,0 c 0,-9.485 -7.689,-17.176 -17.176,-17.176 -9.486,0 -17.176,7.691 -17.176,17.176 0,9.486 7.69,17.176 17.176,17.176 C -7.689,17.176 0,9.486 0,0"
             style="fill:#374cc6;fill-opacity:1;fill-rule:nonzero;stroke:none"
             id="path62" /></g><g
           id="g64"
           transform="translate(556.085,362.8701)"><path
             d="m 0,0 c 0,-9.486 -7.689,-17.177 -17.176,-17.177 -9.485,0 -17.176,7.691 -17.176,17.177 0,9.485 7.691,17.176 17.176,17.176 C -7.689,17.176 0,9.485 0,0"
             style="fill:#299c28;fill-opacity:1;fill-rule:nonzero;stroke:none"
             id="path66" /></g><g
           id="g68"
           transform="translate(651.7793,361.6426)"><path
             d="m 0,0 c 0,-9.485 -7.69,-17.176 -17.176,-17.176 -9.486,0 -17.176,7.691 -17.176,17.176 0,9.486 7.69,17.176 17.176,17.176 C -7.69,17.176 0,9.486 0,0"
             style="fill:#d60921;fill-opacity:1;fill-rule:nonzero;stroke:none"
             id="path70" /></g><g
           id="g72"
           transform="translate(605.1592,319.9297)"><path
             d="m 0,0 c 0,-9.485 -7.689,-17.176 -17.176,-17.176 -9.486,0 -17.176,7.691 -17.176,17.176 0,9.486 7.69,17.176 17.176,17.176 C -7.689,17.176 0,9.486 0,0"
             style="fill:#dfb500;fill-opacity:1;fill-rule:nonzero;stroke:none"
             id="path74" /></g><g
           id="g76"
           transform="translate(609.2227,410.7544)"><path
             d="m 0,0 c 0,-9.486 -7.689,-17.175 -17.176,-17.175 -9.485,0 -17.176,7.689 -17.176,17.175 0,9.486 7.691,17.176 17.176,17.176 C -7.689,17.176 0,9.486 0,0"
             style="fill:#4652e7;fill-opacity:1;fill-rule:nonzero;stroke:none"
             id="path78" /></g><g
           id="g80"
           transform="translate(560.1494,365.3613)"><path
             d="m 0,0 c 0,-9.486 -7.69,-17.176 -17.176,-17.176 -9.486,0 -17.176,7.69 -17.176,17.176 0,9.486 7.69,17.176 17.176,17.176 C -7.69,17.176 0,9.486 0,0"
             style="fill:#26b836;fill-opacity:1;fill-rule:nonzero;stroke:none"
             id="path82" /></g><g
           id="g84"
           transform="translate(655.8428,364.1348)"><path
             d="m 0,0 c 0,-9.486 -7.689,-17.176 -17.176,-17.176 -9.485,0 -17.176,7.69 -17.176,17.176 0,9.485 7.691,17.176 17.176,17.176 C -7.689,17.176 0,9.485 0,0"
             style="fill:#ff1325;fill-opacity:1;fill-rule:nonzero;stroke:none"
             id="path86" /></g><g
           id="g88"
           transform="translate(609.2227,322.4219)"><path
             d="m 0,0 c 0,-9.486 -7.689,-17.176 -17.176,-17.176 -9.485,0 -17.176,7.69 -17.176,17.176 0,9.485 7.691,17.176 17.176,17.176 C -7.689,17.176 0,9.485 0,0"
             style="fill:#fbd000;fill-opacity:1;fill-rule:nonzero;stroke:none"
             id="path90" /></g><g
           id="g92"
           transform="translate(281.2725,365.3232)"><path
             d="m 0,0 h -28.218 v 33.843 c 0,3.669 2.974,6.643 6.643,6.643 H -6.643 C -2.974,40.486 0,37.512 0,33.843 Z"
             style="fill:#0e0e0e;fill-opacity:1;fill-rule:nonzero;stroke:none"
             id="path94" /></g><g
           id="g96"
           transform="translate(274.6294,324.8379)"><path
             d="m 0,0 h -14.932 c -3.669,0 -6.643,2.974 -6.643,6.643 V 40.485 H 6.643 V 6.643 C 6.643,2.974 3.669,0 0,0"
             style="fill:#0e0e0e;fill-opacity:1;fill-rule:nonzero;stroke:none"
             id="path98" /></g><g
           id="g100"
           transform="translate(253.0547,356.7012)"><path
             d="m 0,0 v 17.244 c 0,3.669 2.974,6.644 6.643,6.644 h 44.376 c 3.669,0 6.643,-2.975 6.643,-6.644 V 0 c 0,-3.669 -2.974,-6.643 -6.643,-6.643 H 6.643 C 2.974,-6.643 0,-3.669 0,0"
             style="fill:#0e0e0e;fill-opacity:1;fill-rule:nonzero;stroke:none"
             id="path102" /></g><g
           id="g104"
           transform="translate(255.5088,380.5889)"><path
             d="m 0,0 v -30.53 h -26.482 c -3.669,0 -6.643,2.973 -6.643,6.642 v 17.244 c 0,3.669 2.974,6.644 6.643,6.644 z"
             style="fill:#0e0e0e;fill-opacity:1;fill-rule:nonzero;stroke:none"
             id="path106" /></g><g
           id="g108"
           transform="translate(285.0293,367.4062)"><path
             d="m 0,0 h -28.217 v 33.843 c 0,3.669 2.974,6.643 6.643,6.643 H -6.643 C -2.974,40.486 0,37.512 0,33.843 Z"
             style="fill:#1b1b1b;fill-opacity:1;fill-rule:nonzero;stroke:none"
             id="path110" /></g><g
           id="g112"
           transform="translate(278.3867,326.9209)"><path
             d="m 0,0 h -14.932 c -3.669,0 -6.643,2.974 -6.643,6.643 V 40.485 H 6.643 V 6.643 C 6.643,2.974 3.668,0 0,0"
             style="fill:#1b1b1b;fill-opacity:1;fill-rule:nonzero;stroke:none"
             id="path114" /></g><g
           id="g116"
           transform="translate(256.812,358.7842)"><path
             d="m 0,0 v 17.245 c 0,3.668 2.974,6.643 6.643,6.643 h 44.376 c 3.669,0 6.643,-2.975 6.643,-6.643 V 0 c 0,-3.669 -2.974,-6.643 -6.643,-6.643 H 6.643 C 2.974,-6.643 0,-3.669 0,0"
             style="fill:#1b1b1b;fill-opacity:1;fill-rule:nonzero;stroke:none"
             id="path118" /></g><g
           id="g120"
           transform="translate(259.2656,382.6719)"><path
             d="m 0,0 v -30.53 h -26.482 c -3.668,0 -6.643,2.973 -6.643,6.642 v 17.245 c 0,3.668 2.975,6.643 6.643,6.643 z"
             style="fill:#1b1b1b;fill-opacity:1;fill-rule:nonzero;stroke:none"
             id="path122" /></g><g
           id="g124"
           transform="translate(380.6465,322.3838)"><path
             d="M 0,0 22.643,22.083"
             style="fill:none;stroke:#040404;stroke-width:10;stroke-linecap:round;stroke-linejoin:round;stroke-miterlimit:10;stroke-dasharray:none;stroke-opacity:1"
             id="path126" /></g><g
           id="g128"
           transform="translate(444.4424,322.3838)"><path
             d="M 0,0 22.643,22.083"
             style="fill:none;stroke:#040404;stroke-width:10;stroke-linecap:round;stroke-linejoin:round;stroke-miterlimit:10;stroke-dasharray:none;stroke-opacity:1"
             id="path130" /></g><g
           id="g132"
           transform="translate(381.8735,324.8379)"><path
             d="M 0,0 22.643,22.083"
             style="fill:none;stroke:#1b1b1b;stroke-width:10;stroke-linecap:round;stroke-linejoin:round;stroke-miterlimit:10;stroke-dasharray:none;stroke-opacity:1"
             id="path134" /></g><g
           id="g136"
           transform="translate(445.6689,324.8379)"><path
             d="M 0,0 22.644,22.083"
             style="fill:none;stroke:#1b1b1b;stroke-width:10;stroke-linecap:round;stroke-linejoin:round;stroke-miterlimit:10;stroke-dasharray:none;stroke-opacity:1"
             id="path138" /></g><g
           id="g140"
           transform="translate(443.4375,410.7168)"><path
             d="m 0,0 h -82.643 c -8.007,0 -14.5,6.492 -14.5,14.5 v 6.578 c 0,8.008 6.493,14.5 14.5,14.5 H 0 c 8.009,0 14.5,-6.492 14.5,-14.5 V 14.5 C 14.5,6.492 8.009,0 0,0"
             style="fill:#b3b3b3;fill-opacity:1;fill-rule:nonzero;stroke:none"
             id="path142" /></g><g
           id="g144"
           transform="translate(443.4375,410.7168)"><path
             d="m 0,0 h -82.643 c -8.007,0 -14.5,6.492 -14.5,14.5 v 6.578 c 0,8.008 6.493,14.5 14.5,14.5 H 0 c 8.009,0 14.5,-6.492 14.5,-14.5 V 14.5 C 14.5,6.492 8.009,0 0,0 Z"
             style="fill:none;stroke:#ababac;stroke-width:6;stroke-linecap:round;stroke-linejoin:round;stroke-miterlimit:10;stroke-dasharray:none;stroke-opacity:1"
             id="path146" /></g></g></g></g></svg>
