<?xml version='1.0' encoding='utf-8'?>
<svg xmlns="http://www.w3.org/2000/svg" version="1.1" width="600px" height="976px" viewBox="0 0 600 976"> <g id="layer1"> <g style="fill:rgb(44,141,175); fill-opacity:1.0; stroke-linejoin: miter"> <path d="M200.36496,79.563354Q77.2101,78.13388,-12.796297,160.84496Q-101.033905,247.43259,-106.07793,368.42218Q-108.053894,491.3522,-24.913967,582.27997Q60.378426,670.164,183.43011,675.6814Q306.5855,677.16364,396.6316,594.4833Q484.9064,507.9246,489.99454,386.9363Q492.01474,264.00824,408.91446,173.05365Q323.66116,85.14024,200.61514,79.57034"/> </g> <g style="fill:rgb(241,193,156); fill-opacity:1.0; stroke-linejoin: miter"> <path d="M207.02193,567.7365C207.02193,566.97406,206.78365,564.4006,206.5454,561.9224C205.68758,553.6779,204.87746,535.0444,204.87746,522.3201C204.92503,512.2646,205.06804,508.6904,205.78288,504.68735C206.78365,498.82565,207.40318,497.49118,209.54771,496.15683C212.12117,494.5842,217.50627,488.57956,223.89223,480.19193C224.89299,478.85757,226.94225,476.47476,228.46724,474.90213C229.99223,473.3295,232.56575,469.89822,234.23372,467.2771C237.99857,461.27228,239.95248,458.65118,243.9079,454.21918C245.62354,452.26532,247.48212,449.83478,247.95868,448.7387C248.43524,447.64264,249.67432,445.83173,250.67511,444.68793C251.72351,443.54425,253.6774,441.352,255.05942,439.82703C258.15707,436.34808,258.72897,434.9662,257.96646,433.10754C256.87036,430.3911,252.86725,429.581,249.19772,431.24896C245.86182,432.77386,233.66188,443.0677,231.70793,446.0224C231.23137,446.68958,229.22981,448.92944,227.18059,450.93103C223.74934,454.4099,220.9376,456.07788,218.5548,456.07788C217.83995,456.07788,212.40718,452.599,211.54936,451.59814C211.26341,451.31226,210.35793,450.54968,209.5001,449.93018C208.40404,449.16772,207.35558,447.6427,206.21184,445.16455C204.11494,440.5896,202.01805,434.5849,201.54149,431.7732C201.35085,430.5818,200.87428,428.34192,200.49306,426.7693C199.77821,423.86224,198.3485,415.2364,197.44304,407.945C196.63289,401.4638,195.67973,395.5544,194.86958,392.21848C194.48836,390.50284,193.82118,387.50052,193.43993,385.5466C192.58214,381.40048,190.34236,374.6333,189.1986,372.91766C188.1978,371.39264,185.67198,369.82004,184.2423,369.82004C182.47905,369.82004,180.4298,371.5833,180.09624,373.2989C179.95323,374.15674,180.23924,377.30203,180.81108,380.30438C182.95555,392.50443,183.28911,395.2208,182.95564,400.0818C182.76497,403.37006,182.8603,406.22943,183.38454,409.37476C184.38533,415.6654,184.90952,428.19904,184.19467,428.62793C183.38455,429.15216,181.81186,428.48492,181.24002,427.38885C180.95407,426.8647,180.52518,422.62323,180.28688,418.04822C180.09627,413.42554,179.76265,409.13647,179.6197,408.46924C179.00014,405.32397,177.3798,389.21613,177.42741,386.02316C177.47508,384.06924,177.1892,379.82782,176.80797,376.5872C176.04546,369.96298,175.04466,367.96146,171.99467,366.96066C169.85014,366.24582,168.1822,366.67468,166.70485,368.24738C165.60881,369.43884,165.56114,369.72473,165.56114,376.53958L165.56108,383.64038L163.89311,384.68878C161.17674,386.4044,157.22128,394.88724,156.2681,400.93958C155.83914,403.46533,155.31497,406.08643,155.07669,406.75366C154.60013,407.94507,153.45633,408.3263,152.93216,407.4685C152.78922,407.23022,151.78836,406.99194,150.78763,406.99194C148.6431,406.99194,148.16653,407.56378,147.21341,411.47156C146.83218,412.80597,146.26028,415.0935,145.83133,416.5232C145.4025,417.95288,145.06888,420.43103,145.06888,422.00366C145.0689,423.57635,144.63994,426.38812,144.11577,428.19904C143.35332,431.10602,143.25798,432.10687,143.68681,435.82404C143.9251,438.2068,144.44939,443.6396,144.783,447.97626C145.25957,453.17084,145.8314,456.79266,146.49858,458.6989C147.02281,460.27155,148.35716,464.84668,149.40558,468.8498C152.36029,480.04904,154.83838,485.86313,158.88916,491.24826C162.32043,495.728,163.03528,497.68185,163.89307,504.44907C164.32202,507.8804,164.89386,511.7405,165.13214,513.02716C166.13293,517.9357,166.13287,525.37006,165.13217,537.33185C164.60794,543.9084,164.03604,551.8194,163.893,554.9648C163.75,558.11005,163.51172,562.54205,163.36877,564.87714L163.08289,569.02325L185.0524,569.02313L207.02193,569.02325L207.02193,567.7365 Z M154.60016,430.24823C154.60016,429.05682,154.7431,428.86615,155.07672,429.39044C155.69623,430.34357,155.69623,431.77325,155.07672,431.77325C154.79083,431.77325,154.60016,431.0584,154.60016,430.24823 Z"/> </g> <g style="fill:rgb(241,193,156); fill-opacity:1.0; stroke-linejoin: miter"> <path d="M234.7103,406.03876L236.13998,404.60907L236.04465,397.65134L235.94931,390.6458L237.14072,390.02628C240.09543,388.50128,244.38446,379.78018,245.14694,373.82315C245.57587,370.48724,246.29071,367.43726,246.91022,366.3412C247.05319,366.1505,247.67273,366.29352,248.29227,366.67474C249.96024,367.81848,252.1524,367.62787,252.96255,366.3888C253.86804,364.95914,256.7274,354.1889,256.39383,353.37872C256.10788,352.56854,256.918,347.1834,257.58524,345.4201C257.96646,344.46698,257.96646,341.8459,257.53754,335.93652C257.25162,331.45682,256.918,327.3107,256.8227,326.73886C256.7274,326.21463,256.53677,324.2607,256.34613,322.40213C256.15552,320.59122,255.393,317.15994,254.6305,314.77713C253.91565,312.44202,252.96252,309.20135,252.58127,307.62872C249.3884,294.71387,247.05322,289.13812,242.2876,282.84747C239.14233,278.70135,238.5228,276.98578,237.52194,269.40833C236.99777,265.5483,236.33063,260.92563,236.04468,259.16232C235.28217,254.77802,235.66342,243.91241,237.52194,219.46477C237.80789,216.08116,238.14154,209.98119,238.33215,206.02568L238.6181,198.73433L216.12437,198.7343L193.63066,198.73424L193.91658,202.21309C194.10722,204.07173,194.53612,208.21782,194.91734,211.36314C195.7275,218.55925,196.58525,240.52878,196.53761,254.20602C196.49,269.78958,195.34627,276.17557,192.34395,277.93887C191.6291,278.36777,190.24709,279.5115,189.29396,280.41696C187.19713,282.46622,178.9525,292.28333,176.42674,295.7146C175.47356,297.04895,174.0916,298.57397,173.28142,299.14587C171.99467,300.099,170.6126,302.00525,164.46507,311.44122C163.27367,313.2998,160.55724,316.77872,158.46036,319.20914C156.31583,321.63965,154.12363,324.5467,153.5994,325.64276C153.0275,326.7389,151.78848,328.5498,150.83536,329.59827C146.45096,334.64984,144.4971,336.8896,143.87753,337.69977C142.7338,339.1771,143.01968,341.17862,144.54471,342.70364C145.6885,343.84744,146.35562,344.08572,148.11893,344.08572C151.16898,344.08572,153.5994,342.79898,159.36581,338.17636C164.13145,334.41153,165.7994,332.7435,173.32909,324.40366C176.52202,320.82944,180.33452,318.3513,182.66972,318.3513C183.52751,318.3513,185.76738,319.78098,191.43843,324.0224C196.8712,328.07318,201.44618,344.56226,204.59154,371.2497C204.87746,373.48956,205.25871,376.1583,205.54466,377.20676C205.78294,378.2552,206.54536,381.92474,207.26021,385.30835C208.40398,391.17004,210.64381,398.60446,212.07353,401.32086C213.31258,403.75128,216.60088,405.0857,218.98366,404.13257C221.74773,402.94116,221.93834,401.08258,220.0797,390.55054C219.17421,385.49896,218.69771,380.5427,218.45943,373.63254C218.22115,368.2474,217.83989,362.5763,217.55397,361.00366C217.26805,359.43103,217.02977,355.38025,217.02977,352.0443C217.02974,346.99274,217.17271,345.8966,217.74455,345.65833C218.84065,345.2771,220.27034,346.80212,220.55629,348.75598C220.69923,349.75677,220.93755,352.4732,221.08052,354.80835C221.46178,361.86145,222.3196,370.6779,223.03444,376.01535C223.46333,378.7794,223.84453,383.92633,223.9875,387.45288C224.22577,394.22006,224.9407,400.93964,225.70319,403.513C226.84695,407.42084,231.94623,408.85052,234.7103,406.03876 Z M246.10007,343.51385C246.10007,343.0373,246.29068,342.65607,246.57663,342.65607C246.81491,342.65607,247.05319,343.3709,247.05319,344.2287C247.05319,345.3725,246.91019,345.5631,246.57663,345.03888C246.33835,344.65765,246.10007,343.9428,246.10007,343.51385 Z"/> </g> <g style="fill:rgb(255,255,255); fill-opacity:1.0; stroke-linejoin: miter"> <path d="M218.45729,512.4908L159.34045,512.7211L159.51553,570.54535L218.57253,570.36993L218.4576,512.5977"/> </g> <g style="fill:rgb(0,0,0); fill-opacity:1.0; stroke-linejoin: miter"> <path d="M229.91566,528.34845L147.93562,528.592L147.81422,528.7193L148.24077,672.30536L148.24225,672.30536Q165.4323,674.8744,183.43011,675.6814Q185.59908,675.7075,187.75778,675.7075Q209.59637,675.7075,230.38394,673.0358L230.38625,673.0358L229.91566,528.34845 Z"/> </g> <g style="fill:rgb(255,255,255); fill-opacity:1.0; stroke-linejoin: miter"> <path d="M247.3392,256.57776L188.24333,254.9851L189.7512,197.18022L248.78845,198.71672L247.34201,256.47095"/> </g> <g style="fill:rgb(0,0,0); fill-opacity:1.0; stroke-linejoin: miter"> <path d="M196.18994,79.53907Q188.64308,79.53907,181.22185,79.85794L181.22366,79.85794L177.08897,238.72552L177.20738,238.85562L188.65631,239.15358L196.33824,239.35352L196.33824,239.35352C196.33824,239.35353,196.33824,239.35355,196.33824,239.35356L196.34021,239.35356L236.10236,240.38838L236.10234,240.38838C236.10234,240.3884,236.10234,240.38843,236.10234,240.38844L236.1047,240.38844L247.73721,240.69118L259.16,240.98846L263.17682,88.30591L263.17944,88.30591Q233.22447,81.04646,200.61514,79.57034L200.36496,79.563354Q198.27267,79.53907,196.18994,79.53907 Z"/> </g> </g> </svg>